
nColumns=19
nRows=68
DataType=double
version=3
OpenSimVersion=4.4-2022-10-11-798caa840
endheader
time	ground_force_calcn_r_vx	ground_force_calcn_r_vy	ground_force_calcn_r_vz	ground_force_calcn_r_px	ground_force_calcn_r_py	ground_force_calcn_r_pz	ground_force_calcn_r_mx	ground_force_calcn_r_my	ground_force_calcn_r_mz	ground_force_calcn_l_vx	ground_force_calcn_l_vy	ground_force_calcn_l_vz	ground_force_calcn_l_px	ground_force_calcn_l_py	ground_force_calcn_l_pz	ground_force_calcn_l_mx	ground_force_calcn_l_my	ground_force_calcn_l_mz
0	-63.8096	308.956	9.004110000000001	0.126	0	-0.13988	-0.07115779999999999	0.344535	0.010041	0	0	0	0	0	0	0	0	0
0.01	-73.2991	340.434	7.20103	0.130254	0	-0.139253	-0.0555929	0.258199	0.00546155	0	0	0	0	0	0	0	0	0
0.02	-83.2492	374.554	4.89249	0.135132	0	-0.138472	-0.0406234	0.182773	0.00238741	0	0	0	0	0	0	0	0	0
0.03	-93.2831	410.257	2.07507	0.139827	0	-0.137638	-0.0282224	0.124122	0.0006278050000000001	0	0	0	0	0	0	0	0	0
0.04	-103.021	446.453	-1.19243	0.1443	0	-0.13677	-0.0204388	0.088574	-0.000236573	0	0	0	0	0	0	0	0	0
0.05	-112.109	482.212	-4.7853	0.148528	0	-0.135888	-0.0191174	0.08222930000000001	-0.000816014	0	0	0	0	0	0	0	0	0
0.06	-120.251	516.831	-8.532970000000001	0.152493	0	-0.135012	-0.0253011	0.108743	-0.00179536	0	0	0	0	0	0	0	0	0
0.07000000000000001	-127.213	549.779	-12.2504	0.156176	0	-0.134157	-0.0388508	0.167902	-0.00374125	0	0	0	0	0	0	0	0	0
0.08	-132.82	580.59	-15.758	0.159558	0	-0.133336	-0.0586328	0.256299	-0.0069563	0	0	0	0	0	0	0	0	0
0.09	-136.94	608.768	-18.8985	0.162626	0	-0.132554	-0.0828088	0.368129	-0.0114281	0	0	0	0	0	0	0	0	0
0.1	-139.487	633.798	-21.5629	0.165373	0	-0.131807	-0.108936	0.494978	-0.01684	0	0	0	0	0	0	0	0	0
0.11	-140.435	655.188	-23.7045	0.167806	0	-0.131084	-0.134303	0.626582	-0.0226696	0	0	0	0	0	0	0	0	0
0.12	-139.811	672.519	-25.3316	0.169946	0	-0.130369	-0.156463	0.752617	-0.0283487	0	0	0	0	0	0	0	0	0
0.13	-137.717	685.508	-26.4966	0.171825	0	-0.129644	-0.173532	0.863784	-0.0333874	0	0	0	0	0	0	0	0	0
0.14	-134.307	694.062	-27.2798	0.173479	0	-0.128888	-0.184324	0.952538	-0.0374391	0	0	0	0	0	0	0	0	0
0.15	-129.776	698.3	-27.7695	0.174946	0	-0.12809	-0.188381	1.01364	-0.0403098	0	0	0	0	0	0	0	0	0
0.16	-124.325	698.54	-28.0467	0.176255	0	-0.12724	-0.185842	1.04418	-0.0419243	0	0	0	0	0	0	0	0	0
0.17	-118.152	695.259	-28.1777	0.177427	0	-0.126338	-0.177268	1.04312	-0.042276	0	0	0	0	0	0	0	0	0
0.18	-111.441	689.023	-28.2092	0.178481	0	-0.125386	-0.163484	1.0108	-0.0413829	0	0	0	0	0	0	0	0	0
0.19	-104.361	680.431	-28.1684	0.179432	0	-0.124395	-0.145432	0.948214	-0.039254	0	0	0	0	0	0	0	0	0
0.2	-97.065	670.0700000000001	-28.0672	0.180289	0	-0.123377	-0.124067	0.856471	-0.035875	0	0	0	0	0	0	0	0	0
0.21	-89.6855	658.482	-27.9087	0.181068	0	-0.122352	-0.100314	0.736518	-0.0312161	0	0	0	0	0	0	0	0	0
0.22	-82.3338	646.1559999999999	-27.6936	0.181778	0	-0.121341	-0.0750696	0.5891459999999999	-0.0252503	0	0	0	0	0	0	0	0	0
0.23	-75.1001	633.53	-27.424	0.182428	0	-0.120366	-0.0492372	0.415355	-0.0179797	0	0	0	0	0	0	0	0	0
0.24	-68.0545	620.994	-27.1042	0.183026	0	-0.119453	-0.0237533	0.216747	-0.00946026	0	0	0	0	0	0	0	0	0
0.25	-61.2479	608.885	-26.7421	0.183577	0	-0.118625	0.000431564	-0.00429031	0.00018843	0	0	0	0	0	0	0	0	0
0.26	-54.7135	597.4930000000001	-26.3471	0.184091	0	-0.117911	0.0223825	-0.244426	0.0107782	0	0	0	0	0	0	0	0	0
0.27	-48.4702	587.051	-25.9295	0.184577	0	-0.117334	0.0412529	-0.499638	0.0220685	0	0	0	0	0	0	0	0	0
0.28	-42.5252	577.739	-25.5005	0.185044	0	-0.116913	0.0563533	-0.765605	0.0337926	0	0	0	0	0	0	0	0	0
0.29	-36.8775	569.679	-25.0697	0.185504	0	-0.11666	0.06718830000000001	-1.03792	0.0456752	0	0	0	0	0	0	0	0	0
0.3	-31.5213	562.949	-24.643	0.185967	0	-0.116585	0.07347770000000001	-1.31226	0.0574439	0	0	0	0	0	0	0	0	0
0.31	-26.447	557.583	-24.2222	0.186447	0	-0.116684	0.0751573	-1.58454	0.0688349	0	0	0	0	0	0	0	0	0
0.32	-21.6416	553.583	-23.8069	0.186962	0	-0.116946	0.072357	-1.85086	0.0795966	0	0	0	0	0	0	0	0	0
0.33	-17.0888	550.919	-23.3974	0.187528	0	-0.117347	0.06536980000000001	-2.10743	0.0895022	0	0	0	0	0	0	0	0	0
0.34	-12.7708	549.5309999999999	-23.0002	0.188169	0	-0.117859	0.0546262	-2.35059	0.098382	0	0	0	0	0	0	0	0	0
0.35	-8.67061	549.331	-22.6326	0.188911	0	-0.118443	0.0406761	-2.57706	0.106175	0	0	0	0	0	0	0	0	0
0.36	-4.77563	550.204	-22.325	0.189784	0	-0.119055	0.024167	-2.7843	0.112975	0	0	0	0	0	0	0	0	0
0.37	-1.08153	552.025	-22.1176	0.19082	0	-0.11965	0.00581985	-2.97051	0.119017	0	0	0	0	0	0	0	0	0
0.38	2.40845	554.6609999999999	-22.0519	0.192056	0	-0.120187	-0.0136092	-3.13416	0.124606	0	0	0	0	0	0	0	0	0
0.39	5.68772	557.98	-22.1641	0.193528	0	-0.120624	-0.0333712	-3.2738	0.130042	0	0	0	0	0	0	0	0	0
0.4	8.748749999999999	561.847	-22.4796	0.195265	0	-0.120927	-0.0527552	-3.38795	0.135553	0	0	0	0	0	0	0	0	0
0.41	11.5863	566.136	-23.0109	0.197294	0	-0.12107	-0.0711241	-3.4753	0.141255	0	0	0	0	0	0	0	0	0
0.42	14.2006	570.731	-23.7581	0.199633	0	-0.121034	-0.0879516	-3.53482	0.147146	0	0	0	0	0	0	0	0	0
0.43	16.5992	575.53	-24.7106	0.202286	0	-0.120809	-0.102848	-3.56598	0.153107	0	0	0	0	0	0	0	0	0
0.44	18.7983	580.4400000000001	-25.8493	0.205249	0	-0.120393	-0.11558	-3.56881	0.158933	0	0	0	0	0	0	0	0	0
0.45	20.8223	585.3819999999999	-27.15	0.208508	0	-0.119794	-0.126062	-3.544	0.16437	0	0	0	0	0	0	0	0	0
0.46	22.7009	590.287	-28.5847	0.212033	0	-0.119025	-0.134327	-3.49287	0.169143	0	0	0	0	0	0	0	0	0
0.47	24.4706	595.096	-30.1221	0.215789	0	-0.118106	-0.140522	-3.41733	0.172976	0	0	0	0	0	0	0	0	0
0.48	26.1787	599.763	-31.7274	0.219728	0	-0.11706	-0.144912	-3.31998	0.175627	0	0	0	0	0	0	0	0	0
0.49	27.8849	604.259	-33.3643	0.223794	0	-0.115919	-0.147856	-3.20401	0.17691	0	0	0	0	0	0	0	0	0
0.5	29.6549	608.571	-34.9977	0.22793	0	-0.114708	-0.149743	-3.07299	0.176722	0	0	0	0	0	0	0	0	0
0.51	31.5543	612.6900000000001	-36.5945	0.232077	0	-0.113458	-0.150942	-2.93084	0.175052	0	0	0	0	0	0	0	0	0
0.52	33.6435	616.602	-38.1245	0.236179	0	-0.112194	-0.151772	-2.78162	0.171987	0	0	0	0	0	0	0	0	0
0.53	35.9747	620.2910000000001	-39.5616	0.240185	0	-0.110943	-0.152483	-2.62918	0.167687	0	0	0	0	0	0	0	0	0
0.54	38.5907	623.734	-40.8854	0.244051	0	-0.109727	-0.15323	-2.47663	0.162342	0	0	0	0	0	0	0	0	0
0.55	41.5228	626.901	-42.0824	0.247744	0	-0.108562	-0.154054	-2.32587	0.156131	0	0	0	0	0	0	0	0	0
0.5600000000000001	44.789	629.75	-43.1463	0.251239	0	-0.107465	-0.154875	-2.1776	0.149195	0	0	0	0	0	0	0	0	0
0.57	48.3908	632.226	-44.0748	0.254525	0	-0.106447	-0.155491	-2.03149	0.141623	0	0	0	0	0	0	0	0	0
0.58	52.3111	634.254	-44.8654	0.257599	0	-0.105514	-0.155612	-1.88675	0.133463	0	0	0	0	0	0	0	0	0
0.59	56.5143	635.741	-45.5117	0.260468	0	-0.104675	-0.154919	-1.74272	0.124758	0	0	0	0	0	0	0	0	0
0.6	60.9482	636.578	-45.9995	0.263149	0	-0.103932	-0.153148	-1.59957	0.115586	0	0	0	0	0	0	0	0	0
0.61	65.5462	636.635	-46.3049	0.265662	0	-0.10329	-0.150176	-1.45862	0.106091	0	0	0	0	0	0	0	0	0
0.62	70.2308	635.763	-46.3941	0.268032	0	-0.102749	-0.14607	-1.3223	0.0964932	0	0	0	0	0	0	0	0	0
0.63	74.91670000000001	633.7859999999999	-46.2281	0.270282	0	-0.102314	-0.141094	-1.19364	0.0870636	0	0	0	0	0	0	0	0	0
0.64	79.51220000000001	630.496	-45.7682	0.272435	0	-0.101983	-0.135684	-1.07591	0.0781012	0	0	0	0	0	0	0	0	0
0.65	83.9173	625.655	-44.9827	0.274513	0	-0.101754	-0.130386	-0.972105	0.0698915	0	0	0	0	0	0	0	0	0
0.66	88.0236	618.989	-43.852	0.276533	0	-0.101626	-0.12577	-0.884425	0.0626567	0	0	0	0	0	0	0	0	0
0.67	91.71429999999999	610.197	-42.3729	0.278513	0	-0.101593	-0.122322	-0.813838	0.056514	0	0	0	0	0	0	0	0	0
